<?xml version="1.0" standalone="no"?>
<!DOCTYPE svg PUBLIC "-//W3C//DTD SVG 20010904//EN"
 "http://www.w3.org/TR/2001/REC-SVG-20010904/DTD/svg10.dtd">
<svg version="1.0" xmlns="http://www.w3.org/2000/svg"
 width="90.000000pt" height="90.000000pt" viewBox="0 0 90.000000 90.000000"
 preserveAspectRatio="xMidYMid meet">
<metadata>
Created by potrace 1.14, written by Peter Selinger 2001-2017
</metadata>
<g transform="translate(0.000000,90.000000) scale(0.100000,-0.100000)"
fill="#000000" stroke="none">
<path d="M159 773 c0 -29 0 -576 1 -625 0 -27 2 -28 54 -28 51 0 55 2 51 21
-7 36 3 39 51 12 65 -36 160 -42 234 -14 237 89 256 386 33 497 -80 40 -182
41 -263 3 l-56 -26 1 94 0 93 -52 0 c-51 0 -53 -1 -54 -27z m381 -228 c100
-52 126 -187 51 -269 -57 -62 -150 -82 -226 -47 -36 16 -93 64 -96 80 -7 42
-3 141 7 161 43 87 171 123 264 75z"/>
<path d="M373 475 c-18 -18 -34 -42 -34 -54 -1 -12 -2 -27 -3 -33 -4 -22 22
-65 51 -88 63 -50 173 4 173 85 0 71 -43 117 -114 121 -33 2 -45 -3 -73 -31z"/>
</g>
</svg>
